<mxfile host="app.diagrams.net" modified="2023-12-21T20:36:48.855Z" agent="Mozilla/5.0 (X11; Linux x86_64) AppleWebKit/537.36 (KHTML, like Gecko) Chrome/118.0.0.0 Safari/537.36" etag="-1kRGcAPTgxPfRRGjuAV" version="22.1.11" type="device">
  <diagram name="Страница — 1" id="LGETeaEpzVdsOuc3dwSo">
    <mxGraphModel dx="3217" dy="1257" grid="1" gridSize="10" guides="1" tooltips="1" connect="1" arrows="1" fold="1" page="1" pageScale="1" pageWidth="827" pageHeight="1169" math="0" shadow="0">
      <root>
        <mxCell id="0" />
        <mxCell id="1" parent="0" />
        <mxCell id="ou2yiFSYwdWY2zxWr1jO-5" style="edgeStyle=orthogonalEdgeStyle;rounded=0;orthogonalLoop=1;jettySize=auto;html=1;exitX=0.5;exitY=1;exitDx=0;exitDy=0;entryX=0.5;entryY=0;entryDx=0;entryDy=0;strokeWidth=3;" edge="1" parent="1" source="ou2yiFSYwdWY2zxWr1jO-1" target="ou2yiFSYwdWY2zxWr1jO-2">
          <mxGeometry relative="1" as="geometry" />
        </mxCell>
        <mxCell id="ou2yiFSYwdWY2zxWr1jO-1" value="Начало" style="rounded=1;whiteSpace=wrap;html=1;" vertex="1" parent="1">
          <mxGeometry x="361" y="40" width="106" height="30" as="geometry" />
        </mxCell>
        <mxCell id="ou2yiFSYwdWY2zxWr1jO-8" style="edgeStyle=orthogonalEdgeStyle;rounded=0;orthogonalLoop=1;jettySize=auto;html=1;exitX=0.5;exitY=1;exitDx=0;exitDy=0;entryX=0.5;entryY=0;entryDx=0;entryDy=0;strokeWidth=3;" edge="1" parent="1" source="ou2yiFSYwdWY2zxWr1jO-2" target="ou2yiFSYwdWY2zxWr1jO-7">
          <mxGeometry relative="1" as="geometry" />
        </mxCell>
        <mxCell id="ou2yiFSYwdWY2zxWr1jO-2" value="std::vector&amp;lt;int&amp;gt; primes;&lt;br&gt;int N = 30;&lt;br&gt;int i = 0;" style="rounded=0;whiteSpace=wrap;html=1;" vertex="1" parent="1">
          <mxGeometry x="343" y="100" width="142" height="40" as="geometry" />
        </mxCell>
        <mxCell id="ou2yiFSYwdWY2zxWr1jO-20" style="edgeStyle=orthogonalEdgeStyle;rounded=0;orthogonalLoop=1;jettySize=auto;html=1;exitX=0.5;exitY=1;exitDx=0;exitDy=0;entryX=0.5;entryY=0;entryDx=0;entryDy=0;strokeWidth=3;" edge="1" parent="1" source="ou2yiFSYwdWY2zxWr1jO-7" target="ou2yiFSYwdWY2zxWr1jO-12">
          <mxGeometry relative="1" as="geometry" />
        </mxCell>
        <mxCell id="ou2yiFSYwdWY2zxWr1jO-7" value="i &amp;lt;= N" style="rhombus;whiteSpace=wrap;html=1;" vertex="1" parent="1">
          <mxGeometry x="361" y="170" width="106" height="50" as="geometry" />
        </mxCell>
        <mxCell id="ou2yiFSYwdWY2zxWr1jO-21" style="edgeStyle=orthogonalEdgeStyle;rounded=0;orthogonalLoop=1;jettySize=auto;html=1;exitX=0.5;exitY=1;exitDx=0;exitDy=0;entryX=0.5;entryY=0;entryDx=0;entryDy=0;strokeWidth=3;" edge="1" parent="1" source="ou2yiFSYwdWY2zxWr1jO-12" target="ou2yiFSYwdWY2zxWr1jO-13">
          <mxGeometry relative="1" as="geometry" />
        </mxCell>
        <mxCell id="ou2yiFSYwdWY2zxWr1jO-12" value="check =&amp;nbsp;CheckBasis(i);" style="rounded=0;whiteSpace=wrap;html=1;" vertex="1" parent="1">
          <mxGeometry x="335" y="250" width="157" height="40" as="geometry" />
        </mxCell>
        <mxCell id="ou2yiFSYwdWY2zxWr1jO-45" style="edgeStyle=orthogonalEdgeStyle;rounded=0;orthogonalLoop=1;jettySize=auto;html=1;exitX=0.5;exitY=1;exitDx=0;exitDy=0;entryX=0.5;entryY=0;entryDx=0;entryDy=0;strokeWidth=3;" edge="1" parent="1" source="ou2yiFSYwdWY2zxWr1jO-13" target="ou2yiFSYwdWY2zxWr1jO-44">
          <mxGeometry relative="1" as="geometry" />
        </mxCell>
        <mxCell id="ou2yiFSYwdWY2zxWr1jO-13" value="CheckBasis(int n), возвращает bool" style="swimlane;whiteSpace=wrap;html=1;" vertex="1" parent="1">
          <mxGeometry x="231" y="310" width="366" height="490" as="geometry" />
        </mxCell>
        <mxCell id="ou2yiFSYwdWY2zxWr1jO-18" style="edgeStyle=orthogonalEdgeStyle;rounded=0;orthogonalLoop=1;jettySize=auto;html=1;exitX=0;exitY=0.5;exitDx=0;exitDy=0;entryX=1;entryY=0.5;entryDx=0;entryDy=0;strokeWidth=3;" edge="1" parent="ou2yiFSYwdWY2zxWr1jO-13" source="ou2yiFSYwdWY2zxWr1jO-16" target="ou2yiFSYwdWY2zxWr1jO-17">
          <mxGeometry relative="1" as="geometry" />
        </mxCell>
        <mxCell id="ou2yiFSYwdWY2zxWr1jO-19" value="&lt;font style=&quot;font-size: 15px;&quot;&gt;Да&lt;/font&gt;" style="edgeLabel;html=1;align=center;verticalAlign=middle;resizable=0;points=[];" vertex="1" connectable="0" parent="ou2yiFSYwdWY2zxWr1jO-18">
          <mxGeometry x="-0.1333" y="1" relative="1" as="geometry">
            <mxPoint as="offset" />
          </mxGeometry>
        </mxCell>
        <mxCell id="ou2yiFSYwdWY2zxWr1jO-23" style="edgeStyle=orthogonalEdgeStyle;rounded=0;orthogonalLoop=1;jettySize=auto;html=1;exitX=0.5;exitY=1;exitDx=0;exitDy=0;entryX=0.5;entryY=0;entryDx=0;entryDy=0;strokeWidth=3;" edge="1" parent="ou2yiFSYwdWY2zxWr1jO-13" source="ou2yiFSYwdWY2zxWr1jO-16" target="ou2yiFSYwdWY2zxWr1jO-22">
          <mxGeometry relative="1" as="geometry" />
        </mxCell>
        <mxCell id="ou2yiFSYwdWY2zxWr1jO-24" value="&lt;font style=&quot;font-size: 15px;&quot;&gt;Нет&lt;/font&gt;" style="edgeLabel;html=1;align=center;verticalAlign=middle;resizable=0;points=[];" vertex="1" connectable="0" parent="ou2yiFSYwdWY2zxWr1jO-23">
          <mxGeometry x="-0.1477" y="1" relative="1" as="geometry">
            <mxPoint as="offset" />
          </mxGeometry>
        </mxCell>
        <mxCell id="ou2yiFSYwdWY2zxWr1jO-16" value="n &amp;lt;= 1" style="rhombus;whiteSpace=wrap;html=1;" vertex="1" parent="ou2yiFSYwdWY2zxWr1jO-13">
          <mxGeometry x="139" y="40" width="87" height="40" as="geometry" />
        </mxCell>
        <mxCell id="ou2yiFSYwdWY2zxWr1jO-17" value="return false;" style="rounded=0;whiteSpace=wrap;html=1;" vertex="1" parent="ou2yiFSYwdWY2zxWr1jO-13">
          <mxGeometry x="19" y="45" width="80" height="30" as="geometry" />
        </mxCell>
        <mxCell id="ou2yiFSYwdWY2zxWr1jO-26" style="edgeStyle=orthogonalEdgeStyle;rounded=0;orthogonalLoop=1;jettySize=auto;html=1;exitX=0.5;exitY=1;exitDx=0;exitDy=0;entryX=0.5;entryY=0;entryDx=0;entryDy=0;" edge="1" parent="ou2yiFSYwdWY2zxWr1jO-13" source="ou2yiFSYwdWY2zxWr1jO-22" target="ou2yiFSYwdWY2zxWr1jO-25">
          <mxGeometry relative="1" as="geometry" />
        </mxCell>
        <mxCell id="ou2yiFSYwdWY2zxWr1jO-22" value="int i = 2;" style="rounded=0;whiteSpace=wrap;html=1;" vertex="1" parent="ou2yiFSYwdWY2zxWr1jO-13">
          <mxGeometry x="144.5" y="110" width="77" height="25" as="geometry" />
        </mxCell>
        <mxCell id="ou2yiFSYwdWY2zxWr1jO-29" style="edgeStyle=orthogonalEdgeStyle;rounded=0;orthogonalLoop=1;jettySize=auto;html=1;exitX=0.5;exitY=1;exitDx=0;exitDy=0;entryX=0.5;entryY=0;entryDx=0;entryDy=0;strokeWidth=3;" edge="1" parent="ou2yiFSYwdWY2zxWr1jO-13" source="ou2yiFSYwdWY2zxWr1jO-25" target="ou2yiFSYwdWY2zxWr1jO-28">
          <mxGeometry relative="1" as="geometry" />
        </mxCell>
        <mxCell id="ou2yiFSYwdWY2zxWr1jO-30" value="&lt;font style=&quot;font-size: 15px;&quot;&gt;Да&lt;/font&gt;" style="edgeLabel;html=1;align=center;verticalAlign=middle;resizable=0;points=[];" vertex="1" connectable="0" parent="ou2yiFSYwdWY2zxWr1jO-29">
          <mxGeometry x="-0.3335" y="3" relative="1" as="geometry">
            <mxPoint as="offset" />
          </mxGeometry>
        </mxCell>
        <mxCell id="ou2yiFSYwdWY2zxWr1jO-42" style="edgeStyle=orthogonalEdgeStyle;rounded=0;orthogonalLoop=1;jettySize=auto;html=1;exitX=0;exitY=0.5;exitDx=0;exitDy=0;entryX=0.5;entryY=0;entryDx=0;entryDy=0;strokeWidth=3;" edge="1" parent="ou2yiFSYwdWY2zxWr1jO-13" source="ou2yiFSYwdWY2zxWr1jO-25" target="ou2yiFSYwdWY2zxWr1jO-36">
          <mxGeometry relative="1" as="geometry">
            <Array as="points">
              <mxPoint x="99" y="180" />
              <mxPoint x="99" y="410" />
              <mxPoint x="183" y="410" />
            </Array>
          </mxGeometry>
        </mxCell>
        <mxCell id="ou2yiFSYwdWY2zxWr1jO-43" value="&lt;font style=&quot;font-size: 15px;&quot;&gt;Нет&lt;/font&gt;" style="edgeLabel;html=1;align=center;verticalAlign=middle;resizable=0;points=[];" vertex="1" connectable="0" parent="ou2yiFSYwdWY2zxWr1jO-42">
          <mxGeometry x="-0.8826" y="-1" relative="1" as="geometry">
            <mxPoint as="offset" />
          </mxGeometry>
        </mxCell>
        <mxCell id="ou2yiFSYwdWY2zxWr1jO-25" value="i&amp;lt;=sqrt(n)" style="rhombus;whiteSpace=wrap;html=1;" vertex="1" parent="ou2yiFSYwdWY2zxWr1jO-13">
          <mxGeometry x="144" y="160" width="77" height="40" as="geometry" />
        </mxCell>
        <mxCell id="ou2yiFSYwdWY2zxWr1jO-32" style="edgeStyle=orthogonalEdgeStyle;rounded=0;orthogonalLoop=1;jettySize=auto;html=1;exitX=0.5;exitY=1;exitDx=0;exitDy=0;entryX=0.5;entryY=0;entryDx=0;entryDy=0;strokeWidth=3;" edge="1" parent="ou2yiFSYwdWY2zxWr1jO-13" source="ou2yiFSYwdWY2zxWr1jO-28" target="ou2yiFSYwdWY2zxWr1jO-31">
          <mxGeometry relative="1" as="geometry" />
        </mxCell>
        <mxCell id="ou2yiFSYwdWY2zxWr1jO-33" value="Да" style="edgeLabel;html=1;align=center;verticalAlign=middle;resizable=0;points=[];" vertex="1" connectable="0" parent="ou2yiFSYwdWY2zxWr1jO-32">
          <mxGeometry x="-0.3778" relative="1" as="geometry">
            <mxPoint as="offset" />
          </mxGeometry>
        </mxCell>
        <mxCell id="ou2yiFSYwdWY2zxWr1jO-39" style="edgeStyle=orthogonalEdgeStyle;rounded=0;orthogonalLoop=1;jettySize=auto;html=1;exitX=0;exitY=0.5;exitDx=0;exitDy=0;entryX=0;entryY=0.5;entryDx=0;entryDy=0;strokeWidth=3;" edge="1" parent="ou2yiFSYwdWY2zxWr1jO-13" source="ou2yiFSYwdWY2zxWr1jO-28" target="ou2yiFSYwdWY2zxWr1jO-37">
          <mxGeometry relative="1" as="geometry">
            <Array as="points">
              <mxPoint x="119" y="260" />
              <mxPoint x="119" y="383" />
            </Array>
          </mxGeometry>
        </mxCell>
        <mxCell id="ou2yiFSYwdWY2zxWr1jO-40" value="&lt;font style=&quot;font-size: 15px;&quot;&gt;Нет&lt;/font&gt;" style="edgeLabel;html=1;align=center;verticalAlign=middle;resizable=0;points=[];" vertex="1" connectable="0" parent="ou2yiFSYwdWY2zxWr1jO-39">
          <mxGeometry x="-0.8786" y="-2" relative="1" as="geometry">
            <mxPoint as="offset" />
          </mxGeometry>
        </mxCell>
        <mxCell id="ou2yiFSYwdWY2zxWr1jO-28" value="n%i == 0" style="rhombus;whiteSpace=wrap;html=1;" vertex="1" parent="ou2yiFSYwdWY2zxWr1jO-13">
          <mxGeometry x="144.5" y="240" width="77" height="40" as="geometry" />
        </mxCell>
        <mxCell id="ou2yiFSYwdWY2zxWr1jO-38" style="edgeStyle=orthogonalEdgeStyle;rounded=0;orthogonalLoop=1;jettySize=auto;html=1;exitX=0.5;exitY=1;exitDx=0;exitDy=0;entryX=0.5;entryY=0;entryDx=0;entryDy=0;strokeWidth=3;" edge="1" parent="ou2yiFSYwdWY2zxWr1jO-13" source="ou2yiFSYwdWY2zxWr1jO-31" target="ou2yiFSYwdWY2zxWr1jO-37">
          <mxGeometry relative="1" as="geometry" />
        </mxCell>
        <mxCell id="ou2yiFSYwdWY2zxWr1jO-31" value="return false;" style="rounded=0;whiteSpace=wrap;html=1;" vertex="1" parent="ou2yiFSYwdWY2zxWr1jO-13">
          <mxGeometry x="144" y="310" width="77" height="30" as="geometry" />
        </mxCell>
        <mxCell id="ou2yiFSYwdWY2zxWr1jO-36" value="return false;" style="rounded=0;whiteSpace=wrap;html=1;" vertex="1" parent="ou2yiFSYwdWY2zxWr1jO-13">
          <mxGeometry x="144.5" y="430" width="77" height="30" as="geometry" />
        </mxCell>
        <mxCell id="ou2yiFSYwdWY2zxWr1jO-41" style="edgeStyle=orthogonalEdgeStyle;rounded=0;orthogonalLoop=1;jettySize=auto;html=1;exitX=1;exitY=0.5;exitDx=0;exitDy=0;entryX=1;entryY=0.5;entryDx=0;entryDy=0;strokeWidth=3;" edge="1" parent="ou2yiFSYwdWY2zxWr1jO-13" source="ou2yiFSYwdWY2zxWr1jO-37" target="ou2yiFSYwdWY2zxWr1jO-25">
          <mxGeometry relative="1" as="geometry">
            <Array as="points">
              <mxPoint x="259" y="383" />
              <mxPoint x="259" y="180" />
            </Array>
          </mxGeometry>
        </mxCell>
        <mxCell id="ou2yiFSYwdWY2zxWr1jO-37" value="i++;" style="rounded=0;whiteSpace=wrap;html=1;" vertex="1" parent="ou2yiFSYwdWY2zxWr1jO-13">
          <mxGeometry x="144" y="370" width="77" height="25" as="geometry" />
        </mxCell>
        <mxCell id="ou2yiFSYwdWY2zxWr1jO-47" style="edgeStyle=orthogonalEdgeStyle;rounded=0;orthogonalLoop=1;jettySize=auto;html=1;exitX=0.5;exitY=1;exitDx=0;exitDy=0;entryX=0.5;entryY=0;entryDx=0;entryDy=0;strokeWidth=3;" edge="1" parent="1" source="ou2yiFSYwdWY2zxWr1jO-44" target="ou2yiFSYwdWY2zxWr1jO-46">
          <mxGeometry relative="1" as="geometry" />
        </mxCell>
        <mxCell id="ou2yiFSYwdWY2zxWr1jO-48" value="&lt;font style=&quot;font-size: 15px;&quot;&gt;Да&lt;/font&gt;" style="edgeLabel;html=1;align=center;verticalAlign=middle;resizable=0;points=[];" vertex="1" connectable="0" parent="ou2yiFSYwdWY2zxWr1jO-47">
          <mxGeometry x="-0.4267" y="-4" relative="1" as="geometry">
            <mxPoint as="offset" />
          </mxGeometry>
        </mxCell>
        <mxCell id="ou2yiFSYwdWY2zxWr1jO-51" style="edgeStyle=orthogonalEdgeStyle;rounded=0;orthogonalLoop=1;jettySize=auto;html=1;exitX=0;exitY=0.5;exitDx=0;exitDy=0;entryX=0;entryY=0.5;entryDx=0;entryDy=0;strokeWidth=3;" edge="1" parent="1" source="ou2yiFSYwdWY2zxWr1jO-44" target="ou2yiFSYwdWY2zxWr1jO-49">
          <mxGeometry relative="1" as="geometry">
            <Array as="points">
              <mxPoint x="320" y="860" />
              <mxPoint x="320" y="1020" />
            </Array>
          </mxGeometry>
        </mxCell>
        <mxCell id="ou2yiFSYwdWY2zxWr1jO-52" value="&lt;font style=&quot;font-size: 13px;&quot;&gt;Нет&lt;/font&gt;" style="edgeLabel;html=1;align=center;verticalAlign=middle;resizable=0;points=[];" vertex="1" connectable="0" parent="ou2yiFSYwdWY2zxWr1jO-51">
          <mxGeometry x="-0.8161" y="-4" relative="1" as="geometry">
            <mxPoint as="offset" />
          </mxGeometry>
        </mxCell>
        <mxCell id="ou2yiFSYwdWY2zxWr1jO-44" value="check" style="rhombus;whiteSpace=wrap;html=1;" vertex="1" parent="1">
          <mxGeometry x="366" y="840" width="96" height="40" as="geometry" />
        </mxCell>
        <mxCell id="ou2yiFSYwdWY2zxWr1jO-50" style="edgeStyle=orthogonalEdgeStyle;rounded=0;orthogonalLoop=1;jettySize=auto;html=1;exitX=0.5;exitY=1;exitDx=0;exitDy=0;entryX=0.5;entryY=0;entryDx=0;entryDy=0;strokeWidth=3;" edge="1" parent="1" source="ou2yiFSYwdWY2zxWr1jO-46" target="ou2yiFSYwdWY2zxWr1jO-49">
          <mxGeometry relative="1" as="geometry" />
        </mxCell>
        <mxCell id="ou2yiFSYwdWY2zxWr1jO-46" value="primes.push_back(i);" style="rounded=0;whiteSpace=wrap;html=1;" vertex="1" parent="1">
          <mxGeometry x="351" y="930" width="126" height="40" as="geometry" />
        </mxCell>
        <mxCell id="ou2yiFSYwdWY2zxWr1jO-53" style="edgeStyle=orthogonalEdgeStyle;rounded=0;orthogonalLoop=1;jettySize=auto;html=1;exitX=1;exitY=0.5;exitDx=0;exitDy=0;entryX=1;entryY=0.5;entryDx=0;entryDy=0;strokeWidth=3;" edge="1" parent="1" source="ou2yiFSYwdWY2zxWr1jO-49" target="ou2yiFSYwdWY2zxWr1jO-7">
          <mxGeometry relative="1" as="geometry">
            <Array as="points">
              <mxPoint x="630" y="1020" />
              <mxPoint x="630" y="195" />
            </Array>
          </mxGeometry>
        </mxCell>
        <mxCell id="ou2yiFSYwdWY2zxWr1jO-57" style="edgeStyle=orthogonalEdgeStyle;rounded=0;orthogonalLoop=1;jettySize=auto;html=1;exitX=0.5;exitY=1;exitDx=0;exitDy=0;entryX=0.5;entryY=0;entryDx=0;entryDy=0;strokeWidth=3;" edge="1" parent="1" source="ou2yiFSYwdWY2zxWr1jO-49" target="ou2yiFSYwdWY2zxWr1jO-55">
          <mxGeometry relative="1" as="geometry">
            <mxPoint x="-255" y="230" as="targetPoint" />
            <Array as="points">
              <mxPoint x="414" y="1050" />
              <mxPoint x="200" y="1050" />
              <mxPoint x="200" y="160" />
              <mxPoint x="-255" y="160" />
            </Array>
          </mxGeometry>
        </mxCell>
        <mxCell id="ou2yiFSYwdWY2zxWr1jO-49" value="++i;" style="rounded=0;whiteSpace=wrap;html=1;" vertex="1" parent="1">
          <mxGeometry x="386" y="1010" width="56" height="20" as="geometry" />
        </mxCell>
        <mxCell id="ou2yiFSYwdWY2zxWr1jO-59" style="edgeStyle=orthogonalEdgeStyle;rounded=0;orthogonalLoop=1;jettySize=auto;html=1;exitX=0.5;exitY=1;exitDx=0;exitDy=0;entryX=0.5;entryY=0;entryDx=0;entryDy=0;strokeWidth=3;" edge="1" parent="1" source="ou2yiFSYwdWY2zxWr1jO-55" target="ou2yiFSYwdWY2zxWr1jO-58">
          <mxGeometry relative="1" as="geometry" />
        </mxCell>
        <mxCell id="ou2yiFSYwdWY2zxWr1jO-82" value="&lt;font style=&quot;font-size: 15px;&quot;&gt;Да&lt;/font&gt;" style="edgeLabel;html=1;align=center;verticalAlign=middle;resizable=0;points=[];" vertex="1" connectable="0" parent="ou2yiFSYwdWY2zxWr1jO-59">
          <mxGeometry x="-0.5402" relative="1" as="geometry">
            <mxPoint as="offset" />
          </mxGeometry>
        </mxCell>
        <mxCell id="ou2yiFSYwdWY2zxWr1jO-84" style="edgeStyle=orthogonalEdgeStyle;rounded=0;orthogonalLoop=1;jettySize=auto;html=1;exitX=0;exitY=0.5;exitDx=0;exitDy=0;entryX=0.5;entryY=0;entryDx=0;entryDy=0;strokeWidth=3;" edge="1" parent="1" source="ou2yiFSYwdWY2zxWr1jO-55" target="ou2yiFSYwdWY2zxWr1jO-83">
          <mxGeometry relative="1" as="geometry">
            <Array as="points">
              <mxPoint x="-470" y="355" />
              <mxPoint x="-470" y="1030" />
              <mxPoint x="-255" y="1030" />
            </Array>
          </mxGeometry>
        </mxCell>
        <mxCell id="ou2yiFSYwdWY2zxWr1jO-55" value="N &amp;gt;= 28" style="rhombus;whiteSpace=wrap;html=1;" vertex="1" parent="1">
          <mxGeometry x="-320" y="330" width="130" height="50" as="geometry" />
        </mxCell>
        <mxCell id="ou2yiFSYwdWY2zxWr1jO-61" style="edgeStyle=orthogonalEdgeStyle;rounded=0;orthogonalLoop=1;jettySize=auto;html=1;exitX=0.5;exitY=1;exitDx=0;exitDy=0;entryX=0.5;entryY=0;entryDx=0;entryDy=0;strokeWidth=3;" edge="1" parent="1" source="ou2yiFSYwdWY2zxWr1jO-58" target="ou2yiFSYwdWY2zxWr1jO-60">
          <mxGeometry relative="1" as="geometry" />
        </mxCell>
        <mxCell id="ou2yiFSYwdWY2zxWr1jO-58" value="int i = 0;" style="rounded=0;whiteSpace=wrap;html=1;" vertex="1" parent="1">
          <mxGeometry x="-297.5" y="410" width="85" height="30" as="geometry" />
        </mxCell>
        <mxCell id="ou2yiFSYwdWY2zxWr1jO-73" style="edgeStyle=orthogonalEdgeStyle;rounded=0;orthogonalLoop=1;jettySize=auto;html=1;exitX=0.5;exitY=1;exitDx=0;exitDy=0;entryX=0.5;entryY=0;entryDx=0;entryDy=0;strokeWidth=3;" edge="1" parent="1" source="ou2yiFSYwdWY2zxWr1jO-60" target="ou2yiFSYwdWY2zxWr1jO-62">
          <mxGeometry relative="1" as="geometry" />
        </mxCell>
        <mxCell id="ou2yiFSYwdWY2zxWr1jO-74" value="&lt;font style=&quot;font-size: 15px;&quot;&gt;Да&lt;/font&gt;" style="edgeLabel;html=1;align=center;verticalAlign=middle;resizable=0;points=[];" vertex="1" connectable="0" parent="ou2yiFSYwdWY2zxWr1jO-73">
          <mxGeometry x="-0.3807" relative="1" as="geometry">
            <mxPoint as="offset" />
          </mxGeometry>
        </mxCell>
        <mxCell id="ou2yiFSYwdWY2zxWr1jO-81" style="edgeStyle=orthogonalEdgeStyle;rounded=0;orthogonalLoop=1;jettySize=auto;html=1;exitX=0;exitY=0.5;exitDx=0;exitDy=0;strokeWidth=3;" edge="1" parent="1" source="ou2yiFSYwdWY2zxWr1jO-60">
          <mxGeometry relative="1" as="geometry">
            <mxPoint x="-40" y="920" as="targetPoint" />
            <Array as="points">
              <mxPoint x="-430" y="480" />
              <mxPoint x="-430" y="970" />
              <mxPoint x="-40" y="970" />
            </Array>
          </mxGeometry>
        </mxCell>
        <mxCell id="ou2yiFSYwdWY2zxWr1jO-60" value="i &amp;lt; primes.size()" style="rhombus;whiteSpace=wrap;html=1;" vertex="1" parent="1">
          <mxGeometry x="-318.75" y="460" width="127.5" height="40" as="geometry" />
        </mxCell>
        <mxCell id="ou2yiFSYwdWY2zxWr1jO-72" style="edgeStyle=orthogonalEdgeStyle;rounded=0;orthogonalLoop=1;jettySize=auto;html=1;exitX=0.5;exitY=1;exitDx=0;exitDy=0;entryX=0.5;entryY=0;entryDx=0;entryDy=0;strokeWidth=3;" edge="1" parent="1" source="ou2yiFSYwdWY2zxWr1jO-62" target="ou2yiFSYwdWY2zxWr1jO-64">
          <mxGeometry relative="1" as="geometry" />
        </mxCell>
        <mxCell id="ou2yiFSYwdWY2zxWr1jO-62" value="int value = pow(primes[i], 2) + pow(primes[i], 3) + pow(primes[i], 4);" style="rounded=0;whiteSpace=wrap;html=1;" vertex="1" parent="1">
          <mxGeometry x="-387.5" y="544.5" width="265" height="60" as="geometry" />
        </mxCell>
        <mxCell id="ou2yiFSYwdWY2zxWr1jO-67" style="edgeStyle=orthogonalEdgeStyle;rounded=0;orthogonalLoop=1;jettySize=auto;html=1;exitX=0.5;exitY=1;exitDx=0;exitDy=0;entryX=0.5;entryY=0;entryDx=0;entryDy=0;strokeWidth=3;" edge="1" parent="1" source="ou2yiFSYwdWY2zxWr1jO-64" target="ou2yiFSYwdWY2zxWr1jO-66">
          <mxGeometry relative="1" as="geometry" />
        </mxCell>
        <mxCell id="ou2yiFSYwdWY2zxWr1jO-70" value="&lt;font style=&quot;font-size: 15px;&quot;&gt;Да&lt;/font&gt;" style="edgeLabel;html=1;align=center;verticalAlign=middle;resizable=0;points=[];" vertex="1" connectable="0" parent="ou2yiFSYwdWY2zxWr1jO-67">
          <mxGeometry x="-0.4253" y="-3" relative="1" as="geometry">
            <mxPoint as="offset" />
          </mxGeometry>
        </mxCell>
        <mxCell id="ou2yiFSYwdWY2zxWr1jO-68" style="edgeStyle=orthogonalEdgeStyle;rounded=0;orthogonalLoop=1;jettySize=auto;html=1;exitX=0;exitY=0.5;exitDx=0;exitDy=0;entryX=0.5;entryY=0;entryDx=0;entryDy=0;strokeWidth=3;" edge="1" parent="1" source="ou2yiFSYwdWY2zxWr1jO-64" target="ou2yiFSYwdWY2zxWr1jO-65">
          <mxGeometry relative="1" as="geometry">
            <Array as="points">
              <mxPoint x="-400" y="670" />
              <mxPoint x="-400" y="800" />
            </Array>
          </mxGeometry>
        </mxCell>
        <mxCell id="ou2yiFSYwdWY2zxWr1jO-71" value="&lt;font style=&quot;font-size: 15px;&quot;&gt;Нет&lt;/font&gt;" style="edgeLabel;html=1;align=center;verticalAlign=middle;resizable=0;points=[];" vertex="1" connectable="0" parent="ou2yiFSYwdWY2zxWr1jO-68">
          <mxGeometry x="-0.9067" y="-2" relative="1" as="geometry">
            <mxPoint as="offset" />
          </mxGeometry>
        </mxCell>
        <mxCell id="ou2yiFSYwdWY2zxWr1jO-64" value="N == value" style="rhombus;whiteSpace=wrap;html=1;" vertex="1" parent="1">
          <mxGeometry x="-318.75" y="650" width="127.5" height="40" as="geometry" />
        </mxCell>
        <mxCell id="ou2yiFSYwdWY2zxWr1jO-76" style="edgeStyle=orthogonalEdgeStyle;rounded=0;orthogonalLoop=1;jettySize=auto;html=1;exitX=0.5;exitY=1;exitDx=0;exitDy=0;entryX=0.5;entryY=0;entryDx=0;entryDy=0;strokeWidth=3;" edge="1" parent="1" source="ou2yiFSYwdWY2zxWr1jO-65" target="ou2yiFSYwdWY2zxWr1jO-75">
          <mxGeometry relative="1" as="geometry" />
        </mxCell>
        <mxCell id="ou2yiFSYwdWY2zxWr1jO-80" value="&lt;font style=&quot;font-size: 15px;&quot;&gt;Да&lt;/font&gt;" style="edgeLabel;html=1;align=center;verticalAlign=middle;resizable=0;points=[];" vertex="1" connectable="0" parent="ou2yiFSYwdWY2zxWr1jO-76">
          <mxGeometry x="0.0172" y="2" relative="1" as="geometry">
            <mxPoint as="offset" />
          </mxGeometry>
        </mxCell>
        <mxCell id="ou2yiFSYwdWY2zxWr1jO-78" style="edgeStyle=orthogonalEdgeStyle;rounded=0;orthogonalLoop=1;jettySize=auto;html=1;exitX=0;exitY=0.5;exitDx=0;exitDy=0;entryX=1;entryY=0.5;entryDx=0;entryDy=0;strokeWidth=3;" edge="1" parent="1" source="ou2yiFSYwdWY2zxWr1jO-65" target="ou2yiFSYwdWY2zxWr1jO-60">
          <mxGeometry relative="1" as="geometry">
            <Array as="points">
              <mxPoint x="-380" y="850" />
              <mxPoint x="-380" y="950" />
              <mxPoint x="-110" y="950" />
              <mxPoint x="-110" y="480" />
            </Array>
          </mxGeometry>
        </mxCell>
        <mxCell id="ou2yiFSYwdWY2zxWr1jO-79" value="&lt;font style=&quot;font-size: 15px;&quot;&gt;Нет&lt;/font&gt;" style="edgeLabel;html=1;align=center;verticalAlign=middle;resizable=0;points=[];" vertex="1" connectable="0" parent="ou2yiFSYwdWY2zxWr1jO-78">
          <mxGeometry x="-0.9565" y="2" relative="1" as="geometry">
            <mxPoint as="offset" />
          </mxGeometry>
        </mxCell>
        <mxCell id="ou2yiFSYwdWY2zxWr1jO-65" value="N &amp;lt; value" style="rhombus;whiteSpace=wrap;html=1;" vertex="1" parent="1">
          <mxGeometry x="-318.75" y="830" width="127.5" height="40" as="geometry" />
        </mxCell>
        <mxCell id="ou2yiFSYwdWY2zxWr1jO-66" value="return pow(primes[i], 2) + pow(primes[i], 3) + pow(primes[i], 4);" style="rounded=0;whiteSpace=wrap;html=1;" vertex="1" parent="1">
          <mxGeometry x="-373.75" y="730" width="237.5" height="40" as="geometry" />
        </mxCell>
        <mxCell id="ou2yiFSYwdWY2zxWr1jO-77" style="edgeStyle=orthogonalEdgeStyle;rounded=0;orthogonalLoop=1;jettySize=auto;html=1;exitX=1;exitY=0.5;exitDx=0;exitDy=0;entryX=1;entryY=0.5;entryDx=0;entryDy=0;strokeWidth=3;" edge="1" parent="1" source="ou2yiFSYwdWY2zxWr1jO-75" target="ou2yiFSYwdWY2zxWr1jO-55">
          <mxGeometry relative="1" as="geometry">
            <Array as="points">
              <mxPoint x="-30" y="920" />
              <mxPoint x="-30" y="355" />
            </Array>
          </mxGeometry>
        </mxCell>
        <mxCell id="ou2yiFSYwdWY2zxWr1jO-75" value="break;" style="rounded=0;whiteSpace=wrap;html=1;" vertex="1" parent="1">
          <mxGeometry x="-287.5" y="910" width="65" height="20" as="geometry" />
        </mxCell>
        <mxCell id="ou2yiFSYwdWY2zxWr1jO-86" style="edgeStyle=orthogonalEdgeStyle;rounded=0;orthogonalLoop=1;jettySize=auto;html=1;exitX=0.5;exitY=1;exitDx=0;exitDy=0;entryX=0.5;entryY=0;entryDx=0;entryDy=0;strokeWidth=3;" edge="1" parent="1" source="ou2yiFSYwdWY2zxWr1jO-83" target="ou2yiFSYwdWY2zxWr1jO-85">
          <mxGeometry relative="1" as="geometry" />
        </mxCell>
        <mxCell id="ou2yiFSYwdWY2zxWr1jO-83" value="return -1;" style="rounded=0;whiteSpace=wrap;html=1;" vertex="1" parent="1">
          <mxGeometry x="-312.5" y="1050" width="115" height="30" as="geometry" />
        </mxCell>
        <mxCell id="ou2yiFSYwdWY2zxWr1jO-85" value="Конец" style="rounded=1;whiteSpace=wrap;html=1;" vertex="1" parent="1">
          <mxGeometry x="-312.5" y="1120" width="115" height="30" as="geometry" />
        </mxCell>
      </root>
    </mxGraphModel>
  </diagram>
</mxfile>
